HIERARCHY
ROOT hip
{
	OFFSET 0.000000 0.000000 0.000000
	CHANNELS 6 Xposition Yposition Zposition Xrotation Zrotation Yrotation 
	JOINT abdomen
	{
		OFFSET 0.000000 3.422050 0.000000
		CHANNELS 3 Xrotation Zrotation Yrotation 
		JOINT chest
		{
			OFFSET 0.000000 8.486693 -0.684411
			CHANNELS 3 Xrotation Zrotation Yrotation 
			JOINT neck
			{
				OFFSET 0.000000 10.266162 -0.273764
				CHANNELS 3 Xrotation Zrotation Yrotation 
				JOINT head
				{
					OFFSET 0.000000 3.148285 0.000000
					CHANNELS 3 Xrotation Zrotation Yrotation 
					End Site
					{
						OFFSET 0.000000 3.148289 0.000000
					}
				}
			}
			JOINT lCollar
			{
				OFFSET 3.422053 6.707223 -0.821293
				CHANNELS 3 Yrotation Zrotation Xrotation 
				JOINT lShldr
				{
					OFFSET 3.285171 0.000000 0.000000
					CHANNELS 3 Zrotation Yrotation Xrotation 
					JOINT lForeArm
					{
						OFFSET 10.129278 0.000000 0.000000
						CHANNELS 3 Yrotation Zrotation Xrotation 
						JOINT lHand
						{
							OFFSET 8.486692 0.000000 0.000000
							CHANNELS 3 Zrotation Yrotation Xrotation 
							End Site
							{
								OFFSET 4.106464 0.000000 0.000000
							}
						}
					}
				}
			}
			JOINT rCollar
			{
				OFFSET -3.558935 6.707223 -0.821293
				CHANNELS 3 Yrotation Zrotation Xrotation 
				JOINT rShldr
				{
					OFFSET -3.148289 0.000000 0.000000
					CHANNELS 3 Zrotation Yrotation Xrotation 
					JOINT rForeArm
					{
						OFFSET -10.266159 0.000000 0.000000
						CHANNELS 3 Yrotation Zrotation Xrotation 
						JOINT rHand
						{
							OFFSET -8.349810 0.000000 0.000000
							CHANNELS 3 Zrotation Yrotation Xrotation 
							End Site
							{
								OFFSET -4.106464 0.000000 0.000000
							}
						}
					}
				}
			}
		}
	}
	JOINT lThigh
	{
		OFFSET 5.338403 -1.642589 1.368821
		CHANNELS 3 Xrotation Zrotation Yrotation 
		JOINT lShin
		{
			OFFSET -2.053232 -20.121670 0.000000
			CHANNELS 3 Xrotation Zrotation Yrotation 
			JOINT lFoot
			{
				OFFSET 0.000000 -19.300380 -1.231939
				CHANNELS 3 Xrotation Yrotation Zrotation 
				End Site
				{
					OFFSET 0.000000 -2.463878 4.653993
				}
			}
		}
	}
	JOINT rThigh
	{
		OFFSET -5.338403 -1.642589 1.368821
		CHANNELS 3 Xrotation Zrotation Yrotation 
		JOINT rShin
		{
			OFFSET 2.053232 -20.121670 0.000000
			CHANNELS 3 Xrotation Zrotation Yrotation 
			JOINT rFoot
			{
				OFFSET 0.000000 -19.300380 -1.231939
				CHANNELS 3 Xrotation Yrotation Zrotation 
				End Site
				{
					OFFSET 0.000000 -2.463878 4.653993
				}
			}
		}
	}
}
MOTION
Frames: 14
Frame Time: 0.033264
0.000000 43.528500 0.000000 0.000000 0.000000 0.000000 0.000000 0.000000 0.000000 0.000000 0.000000 0.000000 0.000000 0.000000 0.000000 0.000000 0.000000 0.000000 0.000000 0.000000 0.000000 0.000000 0.000000 0.000000 0.000000 0.000000 0.000000 0.000000 0.000000 0.000000 0.000000 0.000000 0.000000 0.000000 0.000000 0.000000 0.000000 0.000000 0.000000 0.000000 0.000000 0.000000 0.000000 0.000000 0.000000 0.000000 0.000000 0.000000 0.000000 0.000000 0.000000 0.000000 0.000000 0.000000 0.000000 0.000000 0.000000 0.000000 0.000000 0.000000 
0.000000 6.459362 0.000000 -89.999146 -0.002635 -88.998932 -0.446646 0.315407 -0.275759 -0.319891 0.344838 -1.125320 -0.787655 3.827953 -0.063062 -1.747424 19.152315 -0.718689 -2.001868 -30.000090 -10.003426 -38.002804 6.998419 29.998966 -68.004021 -5.000776 -17.003149 -7.999371 -20.001808 -20.002539 -16.341347 -25.507147 -4.296544 -94.738838 63.539215 -178.075180 47.562428 -15.735660 -0.211226 -23.093353 5.739161 -12.910153 -32.560173 -12.418792 0.582849 48.977840 19.940199 8.698886 6.502425 -19.300364 -6.062202 -4.580662 -3.431539 -0.421203 55.245766 4.701371 -0.356979 20.721914 9.044955 0.391646 
0.000000 6.459362 0.000000 -89.999146 -0.002635 -88.998932 -0.446646 0.315407 -0.275759 -0.319891 0.344838 -1.125320 -0.782704 3.655691 -0.061494 -1.779156 18.908142 -0.824271 -2.001868 -30.000090 -10.003426 -38.035591 6.390939 29.434618 -68.822540 -4.712430 -16.791666 -8.229039 -19.535355 -19.951443 -16.341347 -25.507147 -4.296544 -94.738838 63.539223 -178.075180 47.562428 -15.735660 -0.211226 -23.093353 5.739161 -12.910153 -32.560173 -12.418792 0.582849 48.977840 19.940199 8.698886 6.502425 -19.300365 -6.062203 -4.580662 -3.431539 -0.421203 55.245766 4.701371 -0.356979 20.721914 9.044956 0.391646 
0.000000 6.459362 0.000000 -89.999146 -0.002635 -88.998932 -0.446646 0.315407 -0.275759 -0.319891 0.344838 -1.125320 -0.777758 3.483368 -0.059941 -1.810394 18.663702 -0.929648 -2.001868 -30.000090 -10.003426 -38.062386 5.781414 28.869633 -69.644684 -4.426127 -16.575396 -8.457862 -19.068197 -19.902412 -16.341347 -25.507149 -4.296545 -94.738838 63.539215 -178.075180 47.562428 -15.735660 -0.211226 -23.093353 5.739161 -12.910153 -32.560173 -12.418792 0.582849 48.977844 19.940201 8.698886 6.502425 -19.300364 -6.062202 -4.580662 -3.431539 -0.421203 55.245766 4.701371 -0.356979 20.721916 9.044955 0.391646 
0.000000 6.459362 0.000000 -89.999146 -0.002635 -88.998932 -0.446646 0.315407 -0.275759 -0.319891 0.344838 -1.125320 -0.772814 3.310981 -0.058402 -1.841140 18.419004 -1.034825 -2.001868 -30.000090 -10.003426 -38.083157 5.169956 28.303926 -70.470398 -4.141989 -16.354349 -8.685863 -18.600372 -19.855438 -16.341347 -25.507147 -4.296544 -94.738838 63.539223 -178.075180 47.562428 -15.735660 -0.211226 -23.093353 5.739161 -12.910154 -32.560173 -12.418792 0.582849 48.977840 19.940199 8.698886 6.502425 -19.300365 -6.062203 -4.580662 -3.431539 -0.421203 55.245766 4.701371 -0.356979 20.721914 9.044956 0.391646 
0.000000 6.459362 0.000000 -89.999146 -0.002635 -88.998932 -0.446646 0.315407 -0.275759 -0.319891 0.344838 -1.125320 -0.767875 3.138534 -0.056878 -1.871395 18.174040 -1.139804 -2.001868 -30.000097 -10.003427 -38.097900 4.556687 27.737461 -71.299644 -3.860146 -16.128561 -8.913075 -18.131907 -19.810514 -16.341349 -25.507149 -4.296544 -94.738838 63.539215 -178.075180 47.562435 -15.735662 -0.211226 -23.093353 5.739162 -12.910153 -32.560173 -12.418793 0.582849 48.977840 19.940201 8.698887 6.502425 -19.300364 -6.062203 -4.580662 -3.431539 -0.421203 55.245766 4.701371 -0.356979 20.721916 9.044955 0.391646 
0.000000 6.459362 0.000000 -89.999146 -0.002635 -88.998932 -0.446646 0.315407 -0.275759 -0.319891 0.344838 -1.125320 -0.762940 2.966027 -0.055368 -1.901161 17.928823 -1.244588 -2.001868 -30.000090 -10.003426 -38.106552 3.941718 27.170130 -72.132317 -3.580718 -15.898041 -9.139517 -17.662819 -19.767611 -16.341349 -25.507151 -4.296545 -94.738861 63.539230 -178.075195 47.562431 -15.735660 -0.211226 -23.093355 5.739161 -12.910154 -32.560173 -12.418794 0.582849 48.977840 19.940199 8.698886 6.502425 -19.300365 -6.062203 -4.580662 -3.431539 -0.421203 55.245766 4.701371 -0.356979 20.721914 9.044956 0.391646 
0.000000 6.459362 0.000000 -89.999138 -0.002637 -88.998932 -0.446646 0.315407 -0.275759 -0.319891 0.344838 -1.125320 -0.758008 2.793460 -0.053873 -1.930439 17.683350 -1.349181 -2.001867 -30.000086 -10.003426 -38.109104 3.325177 26.601883 -72.968422 -3.303836 -15.662836 -9.365218 -17.193136 -19.726725 -16.341345 -25.507147 -4.296544 -94.738823 63.539200 -178.075180 47.562428 -15.735660 -0.211227 -23.093349 5.739161 -12.910151 -32.560173 -12.418791 0.582849 48.977840 19.940199 8.698886 6.502425 -19.300364 -6.062201 -4.580662 -3.431539 -0.421203 55.245762 4.701371 -0.356978 20.721914 9.044954 0.391646 
0.000000 6.459362 0.000000 -89.999138 -0.002635 -88.998924 -0.446646 0.315407 -0.275759 -0.319891 0.344838 -1.125319 -0.753080 2.620835 -0.052393 -1.959231 17.437622 -1.453586 -2.001868 -30.000090 -10.003426 -38.105522 2.707175 26.032642 -73.807838 -3.029625 -15.422969 -9.590206 -16.722897 -19.687840 -16.341347 -25.507145 -4.296544 -94.738838 63.539215 -178.075180 47.562428 -15.735658 -0.211227 -23.093353 5.739161 -12.910153 -32.560173 -12.418792 0.582849 48.977837 19.940199 8.698886 6.502425 -19.300364 -6.062201 -4.580662 -3.431539 -0.421203 55.245762 4.701371 -0.356979 20.721914 9.044955 0.391646 
0.000000 6.459362 0.000000 -89.999138 -0.002637 -88.998932 -0.446646 0.315407 -0.275759 -0.319891 0.344838 -1.125320 -0.748155 2.448150 -0.050927 -1.987539 17.191652 -1.557806 -2.001868 -30.000090 -10.003426 -38.095764 2.087842 25.462328 -74.650543 -2.758205 -15.178485 -9.814502 -16.252110 -19.650938 -16.341347 -25.507147 -4.296544 -94.738838 63.539207 -178.075195 47.562428 -15.735660 -0.211226 -23.093353 5.739161 -12.910153 -32.560173 -12.418792 0.582849 48.977840 19.940197 8.698886 6.502425 -19.300364 -6.062201 -4.580661 -3.431539 -0.421203 55.245766 4.701371 -0.356979 20.721914 9.044954 0.391646 
0.000000 6.459362 0.000000 -89.999138 -0.002635 -88.998924 -0.446646 0.315407 -0.275759 -0.319891 0.344838 -1.125320 -0.743233 2.275409 -0.049476 -2.015363 16.945436 -1.661844 -2.001868 -30.000090 -10.003426 -38.079796 1.467300 24.890869 -75.496452 -2.489705 -14.929420 -10.038136 -15.780809 -19.616011 -16.341347 -25.507147 -4.296544 -94.738823 63.539207 -178.075180 47.562428 -15.735660 -0.211226 -23.093351 5.739161 -12.910152 -32.560173 -12.418792 0.582849 48.977840 19.940197 8.698886 6.502425 -19.300364 -6.062202 -4.580662 -3.431539 -0.421203 55.245766 4.701371 -0.356979 20.721914 9.044954 0.391646 
0.000000 6.459362 0.000000 -89.999138 -0.002637 -88.998932 -0.446646 0.315407 -0.275759 -0.319891 0.344838 -1.125320 -0.738315 2.102611 -0.048039 -2.042705 16.698978 -1.765703 -2.001868 -30.000090 -10.003426 -38.057602 0.845675 24.318190 -76.345482 -2.224247 -14.675823 -10.261133 -15.309024 -19.583054 -16.341347 -25.507145 -4.296544 -94.738838 63.539215 -178.075180 47.562428 -15.735660 -0.211226 -23.093353 5.739161 -12.910153 -32.560173 -12.418792 0.582849 48.977840 19.940199 8.698886 6.502425 -19.300364 -6.062202 -4.580662 -3.431539 -0.421203 55.245766 4.701371 -0.356979 20.721912 9.044954 0.391647 
0.000000 6.459362 0.000000 -89.999146 -0.002635 -88.998932 -0.446646 0.315407 -0.275759 -0.319891 0.344838 -1.125320 -0.733400 1.929757 -0.046617 -2.069567 16.452278 -1.869387 -2.001868 -30.000090 -10.003426 -38.029133 0.223092 23.744213 -77.197571 -1.961958 -14.417741 -10.483515 -14.836776 -19.552046 -16.341347 -25.507147 -4.296544 -94.738838 63.539215 -178.075180 47.562428 -15.735660 -0.211226 -23.093353 5.739161 -12.910153 -32.560173 -12.418792 0.582849 48.977840 19.940199 8.698886 6.502425 -19.300364 -6.062202 -4.580662 -3.431539 -0.421203 55.245766 4.701371 -0.356979 20.721914 9.044955 0.391646 
0.000000 6.459362 0.000000 -89.999146 -0.002635 -88.998932 -0.446646 0.315407 -0.275759 -0.319891 0.344838 -1.125320 -0.728488 1.756848 -0.045209 -2.095951 16.205347 -1.972899 -2.001868 -30.000090 -10.003426 -37.994350 -0.400316 23.168861 -78.052635 -1.702955 -14.155229 -10.705305 -14.364095 -19.522976 -16.341347 -25.507147 -4.296544 -94.738838 63.539215 -178.075180 47.562428 -15.735660 -0.211227 -23.093353 5.739161 -12.910153 -32.560173 -12.418792 0.582849 48.977840 19.940199 8.698886 6.502425 -19.300364 -6.062202 -4.580662 -3.431539 -0.421203 55.245766 4.701371 -0.356979 20.721914 9.044955 0.391646 
